<svg width="20" height="19" viewBox="0 0 20 19" fill="none" xmlns="http://www.w3.org/2000/svg">
<path fill-rule="evenodd" clip-rule="evenodd" d="M0.399902 9.75433C0.399902 4.61462 4.47529 0.712585 9.80288 0.712585C15.1305 0.712585 19.4517 4.61462 19.4517 9.75433C19.4517 13.8639 16.8474 17.3805 13.0063 18.6108C12.5185 18.696 12.3418 18.4033 12.3418 18.1624C12.3418 18.062 12.3431 17.8262 12.3448 17.5103V17.5103V17.5101C12.3482 16.8697 12.3534 15.9007 12.3534 15.0645C12.3534 14.1937 12.0538 13.6378 11.7004 13.3451C13.8475 13.1116 16.1099 12.8263 16.1099 9.25036C16.1099 8.23502 15.7335 7.72364 15.1189 7.06775C15.2188 6.82688 15.5453 5.83748 15.0191 4.55162C14.2163 4.30705 12.3687 5.55214 12.3687 5.55214C11.6005 5.34463 10.7747 5.23716 9.95652 5.23716C9.13837 5.23716 8.31254 5.34463 7.54432 5.55214C7.54432 5.55214 5.69676 4.31076 4.89397 4.55162C4.36774 5.83377 4.69424 6.82688 4.7941 7.06775C4.17953 7.71994 3.88761 8.23131 3.88761 9.25036C3.88761 12.8152 6.05398 13.1153 8.20115 13.3451C7.92459 13.5897 7.67492 14.001 7.58657 14.5939C7.0373 14.8385 5.62762 15.2498 4.78642 13.8194C4.26019 12.9375 3.30376 12.8634 3.30376 12.8634C2.3627 12.8522 3.24231 13.434 3.24231 13.434C3.87224 13.7119 4.31013 14.7903 4.31013 14.7903C4.87477 16.4504 7.56353 15.8946 7.56353 15.8946C7.56353 16.3988 7.56836 17.1083 7.57177 17.608C7.57362 17.8794 7.57505 18.0889 7.57505 18.1698C7.57505 18.4107 7.4022 18.7034 6.91054 18.6182C3.08098 17.3805 0.399902 13.8639 0.399902 9.75433ZM5.74285 15.1571C5.62762 15.1349 5.5508 15.0497 5.57768 14.9756C5.60457 14.9015 5.71596 14.8644 5.81583 14.8903C5.93107 14.9237 6.00405 15.0089 5.981 15.083C5.95795 15.1571 5.84272 15.1942 5.74285 15.1571ZM6.57253 15.2757C6.68392 15.2757 6.77226 15.2164 6.77226 15.1423C6.77226 15.0571 6.67239 14.9978 6.55716 15.0089C6.44577 15.0089 6.35743 15.0682 6.35743 15.1423C6.35743 15.2275 6.44577 15.2868 6.57253 15.2757ZM7.27544 14.9126C7.16405 14.9385 7.08723 15.0089 7.09875 15.0941C7.11028 15.1683 7.21015 15.2164 7.32538 15.1905C7.43677 15.1646 7.51359 15.0941 7.50207 15.02C7.49055 14.9496 7.38684 14.9015 7.27544 14.9126ZM4.13344 13.4933C4.0835 13.5304 4.09503 13.6156 4.16032 13.686C4.22178 13.7453 4.31013 13.7712 4.36006 13.7231C4.41 13.686 4.39847 13.6008 4.33317 13.5304C4.27172 13.4711 4.18337 13.4451 4.13344 13.4933ZM3.80694 13.3377C3.73012 13.3006 3.69171 13.2413 3.7186 13.1932C3.74549 13.1561 3.80694 13.145 3.88377 13.1672C3.96059 13.2043 3.999 13.2636 3.97211 13.3117C3.94522 13.3636 3.8684 13.3747 3.80694 13.3377ZM4.96311 14.5124C4.90165 14.5605 4.9247 14.6717 5.01305 14.7421C5.10139 14.8273 5.21278 14.8385 5.26272 14.7792C5.31265 14.731 5.2896 14.6198 5.21278 14.5494C5.12828 14.4642 5.01305 14.4531 4.96311 14.5124ZM4.52523 14.1863C4.46377 14.101 4.46377 14.0047 4.52523 13.9676C4.58669 13.9195 4.68655 13.9565 4.74033 14.0417C4.80179 14.127 4.80179 14.2233 4.74033 14.2715C4.69039 14.3086 4.58669 14.2715 4.52523 14.1863Z" fill="#CCD1D8"/>
</svg>
