<svg width="21" height="19" viewBox="0 0 21 19" fill="none" xmlns="http://www.w3.org/2000/svg">
<path fill-rule="evenodd" clip-rule="evenodd" d="M17.0106 7.77467C17.4306 7.37246 18.0021 7.11538 18.6515 7.11538C21.0459 7.11538 21.8425 10.1879 19.682 11.2494C19.7773 11.577 19.8162 11.9419 19.8162 12.2902C19.8162 15.765 15.729 18.5804 10.6893 18.5804C5.67117 18.5804 1.58395 15.765 1.58395 12.2902C1.58395 11.9419 1.61858 11.5936 1.69652 11.266C-0.507288 10.2087 0.280714 7.11538 2.68802 7.11538C3.33747 7.11538 3.93063 7.37246 4.35061 7.79126C5.90064 6.76708 7.96157 6.10778 10.252 6.01656L11.5682 0.310987C11.6245 0.107809 11.8323 -0.0373184 12.0445 0.016586L16.2616 0.912228C16.5473 0.385624 17.1232 0 17.7899 0C18.7468 0 19.5088 0.750515 19.5088 1.64616C19.5088 2.5418 18.7425 3.29232 17.7899 3.29232C16.8547 3.29232 16.0927 2.56253 16.0927 1.66689L12.2739 0.845885L11.0746 6.02071C13.3823 6.0912 15.4649 6.75049 17.0106 7.77467ZM6.90945 9.83963C5.9526 9.83963 5.19057 10.5736 5.19057 11.4858C5.19057 12.3814 5.95692 13.1154 6.90945 13.1112C7.84467 13.1112 8.60669 12.3814 8.60669 11.4858C8.60669 10.5694 7.84467 9.83963 6.90945 9.83963ZM14.4691 15.3628C12.8931 16.8721 8.44649 16.8721 6.87049 15.3628C6.6973 15.2176 6.6973 14.9605 6.87049 14.7947C7.02203 14.6496 7.29047 14.6496 7.44201 14.7947C8.64566 15.9764 12.6376 15.9972 13.8932 14.7947C14.0448 14.6496 14.3132 14.6496 14.4647 14.7947C14.6423 14.9605 14.6423 15.2176 14.4691 15.3628ZM12.7372 11.4899C12.7372 12.3856 13.4992 13.1154 14.4344 13.1154C15.387 13.1154 16.149 12.3814 16.1533 11.4899C16.1533 10.5736 15.387 9.84377 14.4344 9.84377C13.4992 9.84377 12.7372 10.5777 12.7372 11.4899Z" fill="#CCD1D8"/>
</svg>
