<svg width="184" height="48" viewBox="0 0 184 48" fill="none" xmlns="http://www.w3.org/2000/svg">
<path fill-rule="evenodd" clip-rule="evenodd" d="M78.7839 22.3604C78.0141 23.217 77.5294 24.2918 77.3972 25.4362H86.1884C85.8601 22.6584 84.3697 21.3063 81.7258 21.3063C80.6424 21.2337 79.5771 21.6139 78.7839 22.3561V22.3604ZM88.0719 21.0644C89.4284 22.7924 90.1196 25.1943 90.1196 28.2701H77.3281C77.4616 29.8556 77.8897 31.082 78.6241 31.9076C79.4323 32.772 80.5832 33.2325 81.7643 33.1647C82.7618 33.2088 83.7467 32.9301 84.5723 32.3698C85.2332 31.8022 85.7538 31.0894 86.0933 30.2876H89.8561C89.4897 31.8328 88.659 33.2286 87.4757 34.2879C85.883 35.6111 83.8603 36.3053 81.7906 36.2405C79.2461 36.2405 77.2283 35.4456 75.7426 33.8948C74.1572 32.2748 73.3623 30.0586 73.3623 27.2161C73.3623 24.6716 74.0881 22.5548 75.6083 20.8354C77.0645 19.0815 79.0643 18.2434 81.6265 18.2434C84.4388 18.2218 86.5858 19.1506 88.0719 21.0644V21.0644Z" fill="white"/>
<path fill-rule="evenodd" clip-rule="evenodd" d="M108.432 25.2328V35.7736H104.665V25.5616C104.665 22.7488 103.369 21.3626 100.777 21.3626C99.8624 21.3569 98.9832 21.7142 98.3318 22.3557C97.5002 23.1921 97.0116 24.3092 96.9624 25.4882V35.7698H93.1953V18.6885H96.9624V20.6709C97.5723 19.9115 98.3387 19.2911 99.2088 18.8522C100.082 18.4241 101.044 18.2098 102.017 18.2258C106.272 18.2219 108.432 20.537 108.432 25.2328" fill="white"/>
<path fill-rule="evenodd" clip-rule="evenodd" d="M56.5921 15.4785H62.7092C64.2299 15.4785 65.3876 15.8111 66.1652 16.4375C66.9052 17.146 67.3022 18.1401 67.2539 19.1635C67.3022 20.1869 66.9052 21.1809 66.1652 21.8894C65.3703 22.5158 64.2169 22.8484 62.7092 22.8484H56.5921V15.4785ZM72.2651 35.7782L65.5043 25.9722C66.7575 25.7912 67.9455 25.2992 68.9603 24.5419C70.4161 23.3539 71.1764 21.6345 71.1764 19.3838V19.1678V18.9518C71.1764 16.7054 70.4161 14.986 68.9603 13.7937C67.5735 12.7051 65.6555 12.1737 63.2406 12.1737H52.7041V35.7739H56.5921V26.1575H60.7263L67.3273 35.7782H72.2651Z" fill="white"/>
<mask id="mask0" mask-type="alpha" maskUnits="userSpaceOnUse" x="0" y="0" width="23" height="13">
<path fill-rule="evenodd" clip-rule="evenodd" d="M0 0.432007H22.7102V12.7526H0V0.432007Z" fill="white"/>
</mask>
<g mask="url(#mask0)">
<path fill-rule="evenodd" clip-rule="evenodd" d="M6.32016 10.152L9.72 8.19937L10.1779 8.98561L22.7102 1.75825L21.7944 1.23121L20.8742 0.695527L20.4163 0.432007L0 12.2256V12.7526L5.86224 9.36145L6.32016 10.152Z" fill="white"/>
</g>
<mask id="mask1" mask-type="alpha" maskUnits="userSpaceOnUse" x="0" y="4" width="30" height="17">
<path fill-rule="evenodd" clip-rule="evenodd" d="M0 4.14722H29.134V20.1701H0V4.14722Z" fill="white"/>
</mask>
<g mask="url(#mask1)">
<path fill-rule="evenodd" clip-rule="evenodd" d="M6.32016 17.5781L16.1438 11.9016L16.6018 12.7008L29.1341 5.46914L28.2182 4.93346L27.2981 4.40642L26.8402 4.14722L0 19.6431V20.1701L5.86224 16.7789L6.32016 17.5781Z" fill="white"/>
</g>
<mask id="mask2" mask-type="alpha" maskUnits="userSpaceOnUse" x="0" y="5" width="33" height="19">
<path fill-rule="evenodd" clip-rule="evenodd" d="M0 5.99622H32.3438V23.881H0V5.99622Z" fill="white"/>
</mask>
<g mask="url(#mask2)">
<path fill-rule="evenodd" clip-rule="evenodd" d="M6.32016 21.289L19.3536 13.7636L19.8158 14.5541L32.3438 7.31382L31.428 6.79542L30.5122 6.25974L30.0499 5.99622L0 23.3453V23.881L5.86224 20.4941L6.32016 21.289Z" fill="white"/>
</g>
<mask id="mask3" mask-type="alpha" maskUnits="userSpaceOnUse" x="0" y="7" width="36" height="21">
<path fill-rule="evenodd" clip-rule="evenodd" d="M0 7.84924H35.5579V27.5873H0V7.84924Z" fill="white"/>
</mask>
<g mask="url(#mask3)">
<path fill-rule="evenodd" clip-rule="evenodd" d="M6.32016 24.9953L22.6584 15.5648L23.1206 16.3553L35.5579 9.17548L34.6421 8.6398L33.7219 8.11276L33.264 7.84924L0 27.0603V27.5873L5.86224 24.1961L6.32016 24.9953Z" fill="white"/>
</g>
<mask id="mask4" mask-type="alpha" maskUnits="userSpaceOnUse" x="0" y="9" width="39" height="23">
<path fill-rule="evenodd" clip-rule="evenodd" d="M0 9.70276H38.7676V31.2898H0V9.70276Z" fill="white"/>
</mask>
<g mask="url(#mask4)">
<path fill-rule="evenodd" clip-rule="evenodd" d="M6.32016 28.6978L25.8725 17.414L26.3304 18.2132L38.7677 11.0247L37.8518 10.502L36.936 9.96628L36.4738 9.70276L0 30.7628V31.2898L5.86224 27.9072L6.32016 28.6978Z" fill="white"/>
</g>
<path fill-rule="evenodd" clip-rule="evenodd" d="M40.1458 11.8239L39.6878 11.556L0 34.478V35.005L5.86224 31.6224L6.32016 32.413L25.8725 21.1292L26.3304 21.9197L40.8326 13.5519V12.4892V12.2256L40.1458 11.8239Z" fill="white"/>
<path fill-rule="evenodd" clip-rule="evenodd" d="M2.51422 37.2555L5.80174 35.359L6.25966 36.1495L25.7774 24.883L26.2353 25.6822L40.8326 17.2539V16.1911V15.1284V14.6018L2.06494 36.9924L2.51422 37.2555Z" fill="white"/>
<path fill-rule="evenodd" clip-rule="evenodd" d="M25.7774 28.5983L26.2353 29.3979L40.8326 20.9691V19.9064V18.8437V18.3167L5.27466 38.8457L5.7369 39.1088L9.07194 37.1778L9.53418 37.977" fill="white"/>
<path fill-rule="evenodd" clip-rule="evenodd" d="M8.94678 40.9667L12.2861 39.0313L12.7441 39.8301L25.7775 32.3004L26.2354 33.1L40.8327 24.6712V23.6085V22.5544V22.0231L8.48022 40.6941L8.94678 40.9667Z" fill="white"/>
<path fill-rule="evenodd" clip-rule="evenodd" d="M12.1564 42.82L15.4958 40.8929L15.958 41.6834L25.7774 36.016L26.2353 36.8062L40.8326 28.3778V27.3242V26.2615V25.734L11.6985 42.5565L12.1564 42.82Z" fill="white"/>
<path fill-rule="evenodd" clip-rule="evenodd" d="M14.9126 44.4096L15.3705 44.6727L18.7185 42.7421L19.1678 43.5413L25.7774 39.7181L26.2353 40.5173L40.8326 32.0886V31.0263V29.9636V29.4365L14.9126 44.4096Z" fill="white"/>
<mask id="mask5" mask-type="alpha" maskUnits="userSpaceOnUse" x="18" y="33" width="23" height="14">
<path fill-rule="evenodd" clip-rule="evenodd" d="M18.1223 33.1517H40.8326V46.5351H18.1223V33.1517Z" fill="white"/>
</mask>
<g mask="url(#mask5)">
<path fill-rule="evenodd" clip-rule="evenodd" d="M18.5802 46.5351L21.9196 44.5954L22.3775 45.3946L25.7774 43.4247L26.2353 44.2239L40.8326 35.8042V34.7415V33.6788V33.1517L18.1223 46.2716L18.5802 46.5351Z" fill="white"/>
</g>
<mask id="mask6" mask-type="alpha" maskUnits="userSpaceOnUse" x="0" y="2" width="26" height="15">
<path fill-rule="evenodd" clip-rule="evenodd" d="M0 2.2854H25.9242V16.455H0V2.2854Z" fill="white"/>
</mask>
<g mask="url(#mask6)">
<path fill-rule="evenodd" clip-rule="evenodd" d="M25.9243 3.61164L25.0042 3.0846L24.0883 2.55756L23.6304 2.2854L0 15.928V16.455L5.86224 13.0768L6.32016 13.863L12.9298 10.0484L13.4006 10.8476L25.9243 3.61164Z" fill="white"/>
</g>
<path fill-rule="evenodd" clip-rule="evenodd" d="M129.693 32.7166V35.8002H114.18V12.7526H117.804V32.7166H129.693Z" fill="white"/>
<path fill-rule="evenodd" clip-rule="evenodd" d="M134.652 31.127C134.652 32.6843 135.892 33.6702 137.894 33.6702C140.629 33.6702 142.758 32.3033 142.758 28.9022V27.6619C137.45 28.1708 134.652 28.9022 134.652 31.127M142.599 25.2142V24.8643C142.599 21.8446 141.01 20.8272 138.912 20.8272C136.623 20.8272 135.32 22.0031 135.192 24.1018H131.854C132.141 20.4778 135.129 18.2841 139.039 18.2841C143.458 18.2841 146.001 20.4138 145.937 25.5322C145.937 25.9456 145.874 28.9022 145.874 29.6331C145.874 32.1763 146.033 34.2745 146.35 35.7999H143.171C143.044 35.1325 142.949 34.624 142.886 33.5432C141.868 35.2599 139.929 36.2134 137.163 36.2134C133.698 36.2134 131.06 34.3056 131.06 31.1905C131.06 27.0264 135.955 25.9136 142.599 25.2142" fill="white"/>
<path fill-rule="evenodd" clip-rule="evenodd" d="M162.499 27.2803C162.499 23.4338 160.624 21.145 157.89 21.145C155.347 21.145 153.185 23.0523 153.185 27.2803C153.185 31.5087 155.347 33.4475 157.89 33.4475C160.624 33.4475 162.499 31.1268 162.499 27.2803V27.2803ZM153.312 21.2085C154.361 19.4602 156.142 18.3794 158.653 18.3794C162.627 18.3794 166.028 21.7174 166.028 27.2803C166.028 32.8756 162.627 36.2136 158.653 36.2136C156.142 36.2136 154.361 35.1328 153.312 33.3845V35.8002H150.006V12.7526H153.312V21.2085Z" fill="white"/>
</svg>
