<svg width="22" height="17" viewBox="0 0 22 17" fill="none" xmlns="http://www.w3.org/2000/svg">
<path d="M18.9901 4.48865C19.0036 4.6693 19.0036 4.84999 19.0036 5.03064C19.0036 10.5407 14.6388 16.8895 6.66133 16.8895C4.20361 16.8895 1.92051 16.2056 0 15.0184C0.349195 15.0571 0.684914 15.07 1.04754 15.07C3.07546 15.07 4.94227 14.4119 6.43301 13.2893C4.52594 13.2506 2.92775 12.0505 2.37711 10.3987C2.64573 10.4374 2.91431 10.4632 3.19637 10.4632C3.58583 10.4632 3.97533 10.4116 4.33792 10.3213C2.35028 9.93417 0.859491 8.25666 0.859491 6.23071V6.17911C1.43696 6.48882 2.10852 6.68237 2.82027 6.70815C1.65185 5.9597 0.886361 4.68221 0.886361 3.23694C0.886361 2.4627 1.1012 1.75298 1.47727 1.13358C3.61266 3.66278 6.82247 5.31448 10.4217 5.49517C10.3546 5.18547 10.3143 4.8629 10.3143 4.54029C10.3143 2.24333 12.2482 0.372253 14.6522 0.372253C15.9012 0.372253 17.0293 0.875512 17.8217 1.68847C18.8021 1.50782 19.7422 1.15939 20.5749 0.681954C20.2525 1.64978 19.5676 2.46274 18.6678 2.97887C19.5407 2.88859 20.3868 2.65626 21.1658 2.33369C20.5749 3.15952 19.8362 3.89503 18.9901 4.48865Z" fill="#CCD1D8"/>
</svg>
