<svg width="1581" height="1024" viewBox="0 0 1581 1024" fill="none" xmlns="http://www.w3.org/2000/svg">
<rect opacity="0.5" x="1" y="980" width="1581" height="45" fill="#F9F9F9"/>
<rect opacity="0.5" x="1" width="1581" height="45" fill="#F9F9F9"/>
<rect opacity="0.3" y="1" width="1581" height="1024" fill="#F5F9FC"/>
<g opacity="0.6">
<path d="M396.25 1024.5L395.75 0.5" stroke="#EBEDF2" stroke-linecap="square"/>
<path d="M544.25 1024.5L543.75 0.5" stroke="#EBEDF2" stroke-linecap="square"/>
<path d="M703.25 1024.5L702.75 0.5" stroke="#EBEDF2" stroke-linecap="square"/>
<path d="M862.25 1024.5L861.75 0.5" stroke="#EBEDF2" stroke-linecap="square"/>
<path d="M941.25 1024.5L940.75 0.5" stroke="#EBEDF2" stroke-linecap="square"/>
<path d="M1180.25 1024.5L1179.75 0.5" stroke="#EBEDF2" stroke-linecap="square"/>
<path d="M1244.25 1024.5L1243.75 0.5" stroke="#EBEDF2" stroke-linecap="square"/>
<path d="M1436.25 1024.5L1435.75 0.5" stroke="#EBEDF2" stroke-linecap="square"/>
<path d="M1435.5 360.5H1243.5" stroke="#EBEDF2" stroke-linecap="square"/>
</g>
<path d="M1244.5 102.5L544 103" stroke="#EBEDF2" stroke-linecap="square"/>
<g opacity="0.6">
<mask id="mask0" mask-type="alpha" maskUnits="userSpaceOnUse" x="941" y="980" width="239" height="45">
<rect x="941" y="980" width="239" height="45" fill="white"/>
</mask>
<g mask="url(#mask0)">
<path d="M941.5 1024.5L980.5 969.5" stroke="#DCDCE6" stroke-width="6" stroke-linecap="square"/>
<path d="M927 1024.5L966 969.5" stroke="#DCDCE6" stroke-width="6" stroke-linecap="square"/>
<path d="M912 1024.5L951 969.5" stroke="#DCDCE6" stroke-width="6" stroke-linecap="square"/>
<path d="M955 1024.5L994 969.5" stroke="#DCDCE6" stroke-width="6" stroke-linecap="square"/>
<path d="M969 1024.5L1008 969.5" stroke="#DCDCE6" stroke-width="6" stroke-linecap="square"/>
<path d="M983 1024.5L1022 969.5" stroke="#DCDCE6" stroke-width="6" stroke-linecap="square"/>
<path d="M997 1024.5L1036 969.5" stroke="#DCDCE6" stroke-width="6" stroke-linecap="square"/>
<path d="M1011 1024.5L1050 969.5" stroke="#DCDCE6" stroke-width="6" stroke-linecap="square"/>
<path d="M1025 1024.5L1064 969.5" stroke="#DCDCE6" stroke-width="6" stroke-linecap="square"/>
<path d="M1039 1024.5L1078 969.5" stroke="#DCDCE6" stroke-width="6" stroke-linecap="square"/>
<path d="M1053 1024.5L1092 969.5" stroke="#DCDCE6" stroke-width="6" stroke-linecap="square"/>
<path d="M1067 1024.5L1106 969.5" stroke="#DCDCE6" stroke-width="6" stroke-linecap="square"/>
<path d="M1081 1024.5L1120 969.5" stroke="#DCDCE6" stroke-width="6" stroke-linecap="square"/>
<path d="M1095 1024.5L1134 969.5" stroke="#DCDCE6" stroke-width="6" stroke-linecap="square"/>
<path d="M1109 1024.5L1148 969.5" stroke="#DCDCE6" stroke-width="6" stroke-linecap="square"/>
<path d="M1123 1024.5L1162 969.5" stroke="#DCDCE6" stroke-width="6" stroke-linecap="square"/>
<path d="M1137 1024.5L1176 969.5" stroke="#DCDCE6" stroke-width="6" stroke-linecap="square"/>
<path d="M1151 1024.5L1190 969.5" stroke="#DCDCE6" stroke-width="6" stroke-linecap="square"/>
<path d="M1165 1024.5L1204 969.5" stroke="#DCDCE6" stroke-width="6" stroke-linecap="square"/>
<path d="M1179 1024.5L1218 969.5" stroke="#DCDCE6" stroke-width="6" stroke-linecap="square"/>
</g>
</g>
<g opacity="0.6">
<mask id="mask1" mask-type="alpha" maskUnits="userSpaceOnUse" x="703" y="980" width="240" height="45">
<rect x="703.5" y="980" width="239" height="45" fill="white"/>
</mask>
<g mask="url(#mask1)">
<path d="M704 1024.5L743 969.5" stroke="#DCDCE6" stroke-width="6" stroke-linecap="square"/>
<path d="M689.5 1024.5L728.5 969.5" stroke="#DCDCE6" stroke-width="6" stroke-linecap="square"/>
<path d="M674.5 1024.5L713.5 969.5" stroke="#DCDCE6" stroke-width="6" stroke-linecap="square"/>
<path d="M717.5 1024.5L756.5 969.5" stroke="#DCDCE6" stroke-width="6" stroke-linecap="square"/>
<path d="M731.5 1024.5L770.5 969.5" stroke="#DCDCE6" stroke-width="6" stroke-linecap="square"/>
<path d="M745.5 1024.5L784.5 969.5" stroke="#DCDCE6" stroke-width="6" stroke-linecap="square"/>
<path d="M759.5 1024.5L798.5 969.5" stroke="#DCDCE6" stroke-width="6" stroke-linecap="square"/>
<path d="M773.5 1024.5L812.5 969.5" stroke="#DCDCE6" stroke-width="6" stroke-linecap="square"/>
<path d="M787.5 1024.5L826.5 969.5" stroke="#DCDCE6" stroke-width="6" stroke-linecap="square"/>
<path d="M801.5 1024.5L840.5 969.5" stroke="#DCDCE6" stroke-width="6" stroke-linecap="square"/>
<path d="M815.5 1024.5L854.5 969.5" stroke="#DCDCE6" stroke-width="6" stroke-linecap="square"/>
<path d="M829.5 1024.5L868.5 969.5" stroke="#DCDCE6" stroke-width="6" stroke-linecap="square"/>
<path d="M843.5 1024.5L882.5 969.5" stroke="#DCDCE6" stroke-width="6" stroke-linecap="square"/>
<path d="M857.5 1024.5L896.5 969.5" stroke="#DCDCE6" stroke-width="6" stroke-linecap="square"/>
<path d="M871.5 1024.5L910.5 969.5" stroke="#DCDCE6" stroke-width="6" stroke-linecap="square"/>
<path d="M885.5 1024.5L924.5 969.5" stroke="#DCDCE6" stroke-width="6" stroke-linecap="square"/>
<path d="M899.5 1024.5L938.5 969.5" stroke="#DCDCE6" stroke-width="6" stroke-linecap="square"/>
<path d="M913.5 1024.5L952.5 969.5" stroke="#DCDCE6" stroke-width="6" stroke-linecap="square"/>
<path d="M927.5 1024.5L966.5 969.5" stroke="#DCDCE6" stroke-width="6" stroke-linecap="square"/>
<path d="M941.5 1024.5L980.5 969.5" stroke="#DCDCE6" stroke-width="6" stroke-linecap="square"/>
</g>
</g>
<g opacity="0.6">
<mask id="mask2" mask-type="alpha" maskUnits="userSpaceOnUse" x="1342" y="1" width="240" height="45">
<rect x="1342.5" y="1" width="239" height="45" fill="white"/>
</mask>
<g mask="url(#mask2)">
<path d="M1343 45.5L1382 -9.5" stroke="#DCDCE6" stroke-width="6" stroke-linecap="square"/>
<path d="M1328.5 45.5L1367.5 -9.5" stroke="#DCDCE6" stroke-width="6" stroke-linecap="square"/>
<path d="M1313.5 45.5L1352.5 -9.5" stroke="#DCDCE6" stroke-width="6" stroke-linecap="square"/>
<path d="M1356.5 45.5L1395.5 -9.5" stroke="#DCDCE6" stroke-width="6" stroke-linecap="square"/>
<path d="M1370.5 45.5L1409.5 -9.5" stroke="#DCDCE6" stroke-width="6" stroke-linecap="square"/>
<path d="M1384.5 45.5L1423.5 -9.5" stroke="#DCDCE6" stroke-width="6" stroke-linecap="square"/>
<path d="M1398.5 45.5L1437.5 -9.5" stroke="#DCDCE6" stroke-width="6" stroke-linecap="square"/>
<path d="M1412.5 45.5L1451.5 -9.5" stroke="#DCDCE6" stroke-width="6" stroke-linecap="square"/>
<path d="M1426.5 45.5L1465.5 -9.5" stroke="#DCDCE6" stroke-width="6" stroke-linecap="square"/>
<path d="M1440.5 45.5L1479.5 -9.5" stroke="#DCDCE6" stroke-width="6" stroke-linecap="square"/>
<path d="M1454.5 45.5L1493.5 -9.5" stroke="#DCDCE6" stroke-width="6" stroke-linecap="square"/>
<path d="M1468.5 45.5L1507.5 -9.5" stroke="#DCDCE6" stroke-width="6" stroke-linecap="square"/>
<path d="M1482.5 45.5L1521.5 -9.5" stroke="#DCDCE6" stroke-width="6" stroke-linecap="square"/>
<path d="M1496.5 45.5L1535.5 -9.5" stroke="#DCDCE6" stroke-width="6" stroke-linecap="square"/>
<path d="M1510.5 45.5L1549.5 -9.5" stroke="#DCDCE6" stroke-width="6" stroke-linecap="square"/>
<path d="M1524.5 45.5L1563.5 -9.5" stroke="#DCDCE6" stroke-width="6" stroke-linecap="square"/>
<path d="M1538.5 45.5L1577.5 -9.5" stroke="#DCDCE6" stroke-width="6" stroke-linecap="square"/>
<path d="M1552.5 45.5L1591.5 -9.5" stroke="#DCDCE6" stroke-width="6" stroke-linecap="square"/>
<path d="M1566.5 45.5L1605.5 -9.5" stroke="#DCDCE6" stroke-width="6" stroke-linecap="square"/>
<path d="M1580.5 45.5L1619.5 -9.5" stroke="#DCDCE6" stroke-width="6" stroke-linecap="square"/>
</g>
</g>
<g opacity="0.6">
<mask id="mask3" mask-type="alpha" maskUnits="userSpaceOnUse" x="0" y="1" width="240" height="45">
<rect x="0.5" y="1" width="239" height="45" fill="white"/>
</mask>
<g mask="url(#mask3)">
<path d="M1 45.5L40 -9.5" stroke="#DCDCE6" stroke-width="6" stroke-linecap="square"/>
<path d="M-13.5 45.5L25.5 -9.5" stroke="#DCDCE6" stroke-width="6" stroke-linecap="square"/>
<path d="M-28.5 45.5L10.5 -9.5" stroke="#DCDCE6" stroke-width="6" stroke-linecap="square"/>
<path d="M14.5 45.5L53.5 -9.5" stroke="#DCDCE6" stroke-width="6" stroke-linecap="square"/>
<path d="M28.5 45.5L67.5 -9.5" stroke="#DCDCE6" stroke-width="6" stroke-linecap="square"/>
<path d="M42.5 45.5L81.5 -9.5" stroke="#DCDCE6" stroke-width="6" stroke-linecap="square"/>
<path d="M56.5 45.5L95.5 -9.5" stroke="#DCDCE6" stroke-width="6" stroke-linecap="square"/>
<path d="M70.5 45.5L109.5 -9.5" stroke="#DCDCE6" stroke-width="6" stroke-linecap="square"/>
<path d="M84.5 45.5L123.5 -9.5" stroke="#DCDCE6" stroke-width="6" stroke-linecap="square"/>
<path d="M98.5 45.5L137.5 -9.5" stroke="#DCDCE6" stroke-width="6" stroke-linecap="square"/>
<path d="M112.5 45.5L151.5 -9.5" stroke="#DCDCE6" stroke-width="6" stroke-linecap="square"/>
<path d="M126.5 45.5L165.5 -9.5" stroke="#DCDCE6" stroke-width="6" stroke-linecap="square"/>
<path d="M140.5 45.5L179.5 -9.5" stroke="#DCDCE6" stroke-width="6" stroke-linecap="square"/>
<path d="M154.5 45.5L193.5 -9.5" stroke="#DCDCE6" stroke-width="6" stroke-linecap="square"/>
<path d="M168.5 45.5L207.5 -9.5" stroke="#DCDCE6" stroke-width="6" stroke-linecap="square"/>
<path d="M182.5 45.5L221.5 -9.5" stroke="#DCDCE6" stroke-width="6" stroke-linecap="square"/>
<path d="M196.5 45.5L235.5 -9.5" stroke="#DCDCE6" stroke-width="6" stroke-linecap="square"/>
<path d="M210.5 45.5L249.5 -9.5" stroke="#DCDCE6" stroke-width="6" stroke-linecap="square"/>
<path d="M224.5 45.5L263.5 -9.5" stroke="#DCDCE6" stroke-width="6" stroke-linecap="square"/>
<path d="M238.5 45.5L277.5 -9.5" stroke="#DCDCE6" stroke-width="6" stroke-linecap="square"/>
</g>
</g>
</svg>
