<svg width="36" height="30" viewBox="0 0 36 30" fill="none" xmlns="http://www.w3.org/2000/svg">
<path opacity="0.8" fill-rule="evenodd" clip-rule="evenodd" d="M18.7526 21.1544L34.8173 11.8187C35.6678 11.3246 35.6666 10.0952 34.8141 9.60368L18.6266 0.257122C18.0307 -0.086558 17.2966 -0.085918 16.7014 0.260322L0.636801 9.596C-0.213759 10.0901 -0.211839 11.3189 0.640001 11.811L16.8282 21.157C17.424 21.5013 18.1581 21.5 18.7526 21.1544Z" fill="white"/>
<path opacity="0.8" fill-rule="evenodd" clip-rule="evenodd" d="M34.8146 17.7335L31.6792 15.9229L19.3957 23.0615C18.9086 23.3444 18.3525 23.4941 17.788 23.4941C17.2274 23.4941 16.6738 23.3463 16.188 23.066L3.77777 15.9005L0.637285 17.7258C-0.213275 18.2199 -0.211995 19.4493 0.640485 19.9408L16.828 29.2874C17.4238 29.6311 18.1579 29.6298 18.7525 29.2842L34.8178 19.9485C35.6677 19.4544 35.6664 18.2256 34.8146 17.7335Z" fill="white"/>
</svg>
