<svg xmlns="http://www.w3.org/2000/svg" viewBox="0 0 370.32 106.72"><defs><style>.cls-1{fill:#202024;}</style></defs><title>Asset 1</title><g id="Layer_2" data-name="Layer 2"><g id="Layer_1-2" data-name="Layer 1"><path class="cls-1" d="M265.15,27.18l15.54,45.3h.23l15.45-45.3h9l-19.6,54.64h-10.1L256.12,27.18Z"/><path class="cls-1" d="M322.18,27.18,341.24,71h.23l19-43.77h9.88V81.82H362v-39h-.31l-16.76,39h-7.19L321,42.79h-.31v39h-8.34V27.18Z"/><path class="cls-1" d="M203.87,47.76c3.14,4,4.74,9.56,4.74,16.68H179c.31,3.67,1.3,6.51,3,8.42a9.21,9.21,0,0,0,7.27,2.91,10.72,10.72,0,0,0,6.5-1.84,13.05,13.05,0,0,0,3.52-4.82H208a18,18,0,0,1-5.51,9.26,19.66,19.66,0,0,1-13.16,4.52c-5.89,0-10.56-1.84-14-5.43-3.67-3.75-5.51-8.88-5.51-15.46,0-5.89,1.68-10.79,5.2-14.77,3.37-4.06,8-6,13.93-6C195.46,41.18,200.43,43.33,203.87,47.76Zm-21.5,3a12.89,12.89,0,0,0-3.21,7.12h20.35c-.76-6.43-4.21-9.56-10.33-9.56a9.07,9.07,0,0,0-6.81,2.43Z"/><path class="cls-1" d="M251,57.41v24.4h-8.72V58.17c0-6.51-3-9.72-9-9.72a8,8,0,0,0-5.66,2.3A10.89,10.89,0,0,0,224.45,58V81.8h-8.72V42.26h8.72v4.59a15.84,15.84,0,0,1,5.2-4.21,14.21,14.21,0,0,1,6.5-1.45C246,41.18,251,46.54,251,57.41Z"/><path class="cls-1" d="M167.28,81.82l-15.65-22.7a17.63,17.63,0,0,0,8-3.31c3.37-2.75,5.13-6.73,5.13-11.94v-1c0-5.2-1.76-9.18-5.13-11.94-3.21-2.52-7.65-3.75-13.24-3.75H122V81.81h9V59.55h9.57l15.28,22.27ZM131,34.83h14.16c3.52,0,6.2.77,8,2.22a8.22,8.22,0,0,1,2.52,6.31,8.22,8.22,0,0,1-2.52,6.31c-1.84,1.45-4.51,2.22-8,2.22H131Z"/><polygon class="cls-1" points="14.63 22.5 22.5 17.98 23.56 19.8 52.57 3.07 50.45 1.85 48.32 0.61 47.26 0 0 27.3 0 28.52 13.57 20.67 14.63 22.5"/><polygon class="cls-1" points="14.63 39.69 37.37 26.55 38.43 28.4 67.44 11.66 65.32 10.42 63.19 9.2 62.13 8.6 0 44.47 0 45.69 13.57 37.84 14.63 39.69"/><polygon class="cls-1" points="14.63 48.28 44.8 30.86 45.87 32.69 74.87 15.93 72.75 14.73 70.63 13.49 69.56 12.88 0 53.04 0 54.28 13.57 46.44 14.63 48.28"/><polygon class="cls-1" points="14.63 56.86 52.45 35.03 53.52 36.86 82.31 20.24 80.19 19 78.06 17.78 77 17.17 0 61.64 0 62.86 13.57 55.01 14.63 56.86"/><polygon class="cls-1" points="14.63 65.43 59.89 39.31 60.95 41.16 89.74 24.52 87.62 23.31 85.5 22.07 84.43 21.46 0 70.21 0 71.43 13.57 63.6 14.63 65.43"/><polygon class="cls-1" points="92.93 26.37 91.87 25.75 0 78.81 0 80.03 13.57 72.2 14.63 74.03 59.89 47.91 60.95 49.74 94.52 30.37 94.52 27.91 94.52 27.3 92.93 26.37"/><polygon class="cls-1" points="5.82 85.24 13.43 80.85 14.49 82.68 59.67 56.6 60.73 58.45 94.52 38.94 94.52 36.48 94.52 34.02 94.52 32.8 4.78 84.63 5.82 85.24"/><polyline class="cls-1" points="59.67 65.2 60.73 67.05 94.52 47.54 94.52 45.08 94.52 42.62 94.52 41.4 12.21 88.92 13.28 89.53 21 85.06 22.07 86.91"/><polygon class="cls-1" points="20.71 93.83 28.44 89.35 29.5 91.2 59.67 73.77 60.73 75.62 94.52 56.11 94.52 53.65 94.52 51.21 94.52 49.98 19.63 93.2 20.71 93.83"/><polygon class="cls-1" points="28.14 98.12 35.87 93.66 36.94 95.49 59.67 82.37 60.73 84.2 94.52 64.69 94.52 62.25 94.52 59.79 94.52 58.57 27.08 97.51 28.14 98.12"/><polygon class="cls-1" points="34.52 101.8 35.58 102.41 43.33 97.94 44.37 99.79 59.67 90.94 60.73 92.79 94.52 73.28 94.52 70.82 94.52 68.36 94.52 67.14 34.52 101.8"/><polygon class="cls-1" points="43.01 106.72 50.74 102.23 51.8 104.08 59.67 99.52 60.73 101.37 94.52 81.88 94.52 79.42 94.52 76.96 94.52 75.74 41.95 106.11 43.01 106.72"/><polygon class="cls-1" points="60.01 7.36 57.88 6.14 57.88 6.14 55.76 4.92 54.7 4.29 0 35.87 0 37.09 13.57 29.27 14.63 31.09 29.93 22.26 31.02 24.11 60.01 7.36"/></g></g></svg>