<svg width="29" height="29" viewBox="0 0 29 29" fill="none" xmlns="http://www.w3.org/2000/svg">
<mask id="mask0" mask-type="alpha" maskUnits="userSpaceOnUse" x="0" y="0" width="29" height="29">
<rect width="29" height="29" rx="8" fill="white"/>
</mask>
<g mask="url(#mask0)">
<path fill-rule="evenodd" clip-rule="evenodd" d="M25.8302 9.79599C25.8302 10.147 25.6909 10.4846 25.443 10.7332L25.3092 10.867C24.7977 11.3809 23.9667 11.3888 23.4457 10.8836C21.0337 8.54946 17.8567 7.26357 14.5004 7.26357C11.1433 7.26357 7.96632 8.55024 5.55353 10.8836C5.03335 11.3872 4.20548 11.3809 3.69238 10.8694L3.5586 10.7356C3.30914 10.4861 3.16985 10.1485 3.16985 9.79599V9.78655C3.17221 9.43006 3.31779 9.09088 3.57355 8.84299C6.51754 5.99028 10.398 4.41953 14.5004 4.41953C18.602 4.41953 22.4825 5.99028 25.4264 8.84299C25.6814 9.09009 25.827 9.42927 25.8302 9.78419V9.79599ZM20.7346 14.9615C20.7346 15.3157 20.5938 15.6549 20.3427 15.9035L20.2774 15.9688C19.7643 16.4788 18.938 16.4843 18.4186 15.9807C17.3625 14.9584 15.9704 14.3957 14.5004 14.3957C13.0296 14.3957 11.6375 14.9584 10.5814 15.9814C10.0612 16.4843 9.23568 16.478 8.72259 15.9688L8.65648 15.9035C8.40544 15.6549 8.26458 15.3157 8.26458 14.9615V14.9537C8.26773 14.5972 8.41253 14.2564 8.66829 14.0085C10.2398 12.485 12.3111 11.6477 14.5004 11.6477C16.6889 11.6477 18.7602 12.4858 20.3317 14.0085C20.5875 14.2564 20.7323 14.5972 20.7346 14.9537V14.9615ZM14.4508 24.5813C12.862 24.5813 11.5737 23.293 11.5737 21.7042C11.5737 20.1153 12.862 18.8278 14.4508 18.8278C16.0389 18.8278 17.3271 20.1153 17.3271 21.7042C17.3271 23.293 16.0389 24.5813 14.4508 24.5813ZM1.57391 0C0.704323 0 0 0.704323 0 1.57391V27.4261C0 28.2957 0.704323 29 1.57391 29H27.4261C28.2957 29 29 28.2957 29 27.4261V1.57391C29 0.704323 28.2957 0 27.4261 0H1.57391Z" fill="#CCD1D8"/>
</g>
</svg>
