<svg width="96" height="96" viewBox="0 0 96 96" fill="none" xmlns="http://www.w3.org/2000/svg">
<path d="M48 0.5C21.8 0.5 0.5 21.8 0.5 48C0.5 74.2 21.8 95.5 48 95.5C74.2 95.5 95.5 74.2 95.5 48C95.5 21.8 74.2 0.5 48 0.5ZM19.1 36.7C19.1 35.7 20 34.8 21 34.8H51.9V23.5C51.9 21.9 53.8 21 55 22.1L76.1 40.5C77.4 41.7 76.6 43.8 74.9 43.8H21C20 43.8 19.1 42.9 19.1 41.9V36.7ZM76.9 59.3C76.9 60.3 76 61.2 75 61.2H44.1V72.5C44.1 74.1 42.2 75 41 73.9L19.8 55.6C18.5 54.4 19.3 52.3 21 52.3H75C76 52.3 76.9 53.1 76.9 54.2V59.3Z" fill="white"/>
</svg>
